<svg xmlns="http://www.w3.org/2000/svg" viewBox="0 0 1400 1020" font-family="'Inter', 'SF Pro Display', system-ui, -apple-system, sans-serif">
  <defs>
    <!-- Agent gradients -->
    <linearGradient id="g0" x1="0%" y1="0%" x2="100%" y2="100%">
      <stop offset="0%" style="stop-color:#06B6D4" /><stop offset="100%" style="stop-color:#0891B2" />
    </linearGradient>
    <linearGradient id="g1" x1="0%" y1="0%" x2="100%" y2="100%">
      <stop offset="0%" style="stop-color:#3B82F6" /><stop offset="100%" style="stop-color:#2563EB" />
    </linearGradient>
    <linearGradient id="g2" x1="0%" y1="0%" x2="100%" y2="100%">
      <stop offset="0%" style="stop-color:#10B981" /><stop offset="100%" style="stop-color:#059669" />
    </linearGradient>
    <linearGradient id="g3" x1="0%" y1="0%" x2="100%" y2="100%">
      <stop offset="0%" style="stop-color:#F59E0B" /><stop offset="100%" style="stop-color:#D97706" />
    </linearGradient>
    <linearGradient id="g4" x1="0%" y1="0%" x2="100%" y2="100%">
      <stop offset="0%" style="stop-color:#8B5CF6" /><stop offset="100%" style="stop-color:#7C3AED" />
    </linearGradient>
    <linearGradient id="g5" x1="0%" y1="0%" x2="100%" y2="100%">
      <stop offset="0%" style="stop-color:#EF4444" /><stop offset="100%" style="stop-color:#DC2626" />
    </linearGradient>
    <linearGradient id="g6" x1="0%" y1="0%" x2="100%" y2="100%">
      <stop offset="0%" style="stop-color:#EC4899" /><stop offset="100%" style="stop-color:#DB2777" />
    </linearGradient>
    <linearGradient id="gGov" x1="0%" y1="0%" x2="100%" y2="100%">
      <stop offset="0%" style="stop-color:#1E293B" /><stop offset="100%" style="stop-color:#0F172A" />
    </linearGradient>
    <linearGradient id="gL3" x1="0%" y1="0%" x2="100%" y2="0%">
      <stop offset="0%" style="stop-color:#14B8A6" /><stop offset="100%" style="stop-color:#0D9488" />
    </linearGradient>
    <linearGradient id="gL2" x1="0%" y1="0%" x2="100%" y2="0%">
      <stop offset="0%" style="stop-color:#6366F1" /><stop offset="100%" style="stop-color:#4F46E5" />
    </linearGradient>
    <linearGradient id="gL1" x1="0%" y1="0%" x2="100%" y2="0%">
      <stop offset="0%" style="stop-color:#A855F7" /><stop offset="100%" style="stop-color:#9333EA" />
    </linearGradient>
    <linearGradient id="gEsc" x1="0%" y1="0%" x2="100%" y2="100%">
      <stop offset="0%" style="stop-color:#F97316" /><stop offset="100%" style="stop-color:#EA580C" />
    </linearGradient>
    <!-- Glow effect for cards -->
    <filter id="glow" x="-10%" y="-10%" width="120%" height="120%">
      <feDropShadow dx="0" dy="0" stdDeviation="6" flood-color="#3B82F6" flood-opacity="0.15"/>
    </filter>
    <filter id="shadow" x="-5%" y="-5%" width="110%" height="110%">
      <feDropShadow dx="0" dy="2" stdDeviation="4" flood-color="#000" flood-opacity="0.4"/>
    </filter>
    <filter id="softShadow" x="-5%" y="-5%" width="110%" height="110%">
      <feDropShadow dx="0" dy="1" stdDeviation="2" flood-color="#000" flood-opacity="0.3"/>
    </filter>
    <!-- Arrow markers -->
    <marker id="arr" markerWidth="8" markerHeight="6" refX="8" refY="3" orient="auto">
      <path d="M0,0 L8,3 L0,6 Z" fill="#475569"/>
    </marker>
    <marker id="arrGreen" markerWidth="8" markerHeight="6" refX="8" refY="3" orient="auto">
      <path d="M0,0 L8,3 L0,6 Z" fill="#10B981"/>
    </marker>
    <marker id="arrRed" markerWidth="8" markerHeight="6" refX="8" refY="3" orient="auto">
      <path d="M0,0 L8,3 L0,6 Z" fill="#EF4444"/>
    </marker>
    <marker id="arrOrange" markerWidth="8" markerHeight="6" refX="8" refY="3" orient="auto">
      <path d="M0,0 L8,3 L0,6 Z" fill="#F97316"/>
    </marker>
    <marker id="arrTeal" markerWidth="8" markerHeight="6" refX="8" refY="3" orient="auto">
      <path d="M0,0 L8,3 L0,6 Z" fill="#14B8A6"/>
    </marker>
    <marker id="arrCyan" markerWidth="8" markerHeight="6" refX="8" refY="3" orient="auto">
      <path d="M0,0 L8,3 L0,6 Z" fill="#06B6D4"/>
    </marker>
  </defs>

  <!-- ==================== BACKGROUND ==================== -->
  <rect width="1400" height="1020" fill="#0A0F1A" rx="0"/>
  <!-- Subtle grid pattern -->
  <pattern id="grid" width="40" height="40" patternUnits="userSpaceOnUse">
    <path d="M 40 0 L 0 0 0 40" fill="none" stroke="#1E293B" stroke-width="0.5" opacity="0.3"/>
  </pattern>
  <rect width="1400" height="1020" fill="url(#grid)"/>

  <!-- ==================== TITLE ==================== -->
  <text x="700" y="42" text-anchor="middle" font-size="24" font-weight="800" fill="#F8FAFC" letter-spacing="0.5">AgenticAML (Sentinel) v2</text>
  <text x="700" y="64" text-anchor="middle" font-size="13" fill="#64748B" letter-spacing="0.5">Full Customer Lifecycle AML Platform  |  7-Agent Pipeline  |  3-Layer Verification  |  CBN 2026</text>

  <!-- ==================== THREE-LAYER FRAMEWORK (Top Left) ==================== -->
  <rect x="25" y="85" width="360" height="175" rx="12" fill="#111827" stroke="#1E293B" stroke-width="1"/>
  <text x="205" y="108" text-anchor="middle" font-size="11" font-weight="700" fill="#94A3B8" letter-spacing="1.5">THREE-LAYER VERIFICATION</text>

  <rect x="40" y="118" width="330" height="38" rx="8" fill="url(#gL3)" filter="url(#softShadow)"/>
  <text x="55" y="140" font-size="10" font-weight="800" fill="white">L3</text>
  <text x="80" y="134" font-size="10" font-weight="600" fill="white">Watchlist Screening + Continuous Monitoring</text>
  <text x="80" y="148" font-size="8" fill="rgba(255,255,255,0.7)">OFAC, UN, PEP, Adverse Media  |  LIVE NOW</text>
  <circle cx="350" cy="137" r="6" fill="#10B981"/><text x="350" y="140" text-anchor="middle" font-size="7" fill="white">&#10003;</text>

  <rect x="40" y="162" width="330" height="38" rx="8" fill="url(#gL2)" filter="url(#softShadow)"/>
  <text x="55" y="184" font-size="10" font-weight="800" fill="white">L2</text>
  <text x="80" y="178" font-size="10" font-weight="600" fill="white">KYC Identity Verification (YouVerify)</text>
  <text x="80" y="192" font-size="8" fill="rgba(255,255,255,0.7)">BVN, NIN, Address, CAC  |  HOOKS READY</text>
  <circle cx="350" cy="181" r="6" fill="#F59E0B"/><text x="350" y="184" text-anchor="middle" font-size="7" fill="white">~</text>

  <rect x="40" y="206" width="330" height="38" rx="8" fill="url(#gL1)" filter="url(#softShadow)" opacity="0.5"/>
  <text x="55" y="228" font-size="10" font-weight="800" fill="white">L1</text>
  <text x="80" y="222" font-size="10" font-weight="600" fill="rgba(255,255,255,0.8)">Biometric Verification</text>
  <text x="80" y="236" font-size="8" fill="rgba(255,255,255,0.5)">Fingerprint, Liveness, OCR  |  FUTURE</text>
  <circle cx="350" cy="225" r="6" fill="#475569"/><text x="350" y="228" text-anchor="middle" font-size="7" fill="#94A3B8">-</text>

  <!-- ==================== CUSTOMER ONBOARDING (Top Center) ==================== -->
  <rect x="405" y="85" width="640" height="175" rx="12" fill="#111827" stroke="#1E293B" stroke-width="1"/>
  <text x="725" y="108" text-anchor="middle" font-size="11" font-weight="700" fill="#94A3B8" letter-spacing="1.5">CUSTOMER ONBOARDING PIPELINE</text>

  <!-- New Customer input -->
  <rect x="425" y="122" width="110" height="44" rx="8" fill="#1E293B" stroke="#334155" stroke-width="1"/>
  <text x="480" y="143" text-anchor="middle" font-size="9" font-weight="600" fill="#E2E8F0">New Customer</text>
  <text x="480" y="156" text-anchor="middle" font-size="8" fill="#64748B">Registration</text>

  <!-- Agent 0 -->
  <rect x="560" y="118" width="180" height="52" rx="20" fill="url(#g0)" filter="url(#shadow)"/>
  <circle cx="585" cy="144" r="12" fill="rgba(255,255,255,0.2)"/>
  <text x="585" y="148" text-anchor="middle" font-size="10" fill="white" font-weight="800">0</text>
  <text x="608" y="138" font-size="10" font-weight="700" fill="white">Onboarding Screener</text>
  <text x="608" y="152" font-size="8" fill="rgba(255,255,255,0.8)">Pre-transaction watchlist check</text>

  <!-- Decision outcomes -->
  <rect x="770" y="118" width="85" height="25" rx="5" fill="#064E3B" stroke="#10B981" stroke-width="1"/>
  <text x="812" y="134" text-anchor="middle" font-size="8" font-weight="700" fill="#10B981">CLEAR</text>

  <rect x="770" y="148" width="85" height="25" rx="5" fill="#7F1D1D" stroke="#EF4444" stroke-width="1"/>
  <text x="812" y="164" text-anchor="middle" font-size="8" font-weight="700" fill="#EF4444">BLOCKED</text>

  <!-- Escalation -->
  <rect x="880" y="118" width="150" height="55" rx="8" fill="url(#gEsc)" filter="url(#shadow)"/>
  <text x="955" y="137" text-anchor="middle" font-size="9" font-weight="700" fill="white">C-Suite / MLRO</text>
  <text x="955" y="150" text-anchor="middle" font-size="9" font-weight="700" fill="white">Escalation</text>
  <text x="955" y="164" text-anchor="middle" font-size="7" fill="rgba(255,255,255,0.7)">PEP / Adverse Media match</text>

  <!-- Onboarding flow arrows -->
  <line x1="535" y1="144" x2="560" y2="144" stroke="#475569" stroke-width="1.5" marker-end="url(#arrCyan)"/>
  <line x1="740" y1="131" x2="770" y2="131" stroke="#10B981" stroke-width="1.5" marker-end="url(#arrGreen)"/>
  <line x1="740" y1="155" x2="770" y2="160" stroke="#EF4444" stroke-width="1.5" marker-end="url(#arrRed)"/>
  <line x1="855" y1="160" x2="880" y2="148" stroke="#F97316" stroke-width="1.5" marker-end="url(#arrOrange)"/>

  <!-- Continuous monitoring -->
  <rect x="425" y="185" width="200" height="38" rx="8" fill="url(#gL3)" filter="url(#softShadow)" opacity="0.85"/>
  <text x="525" y="202" text-anchor="middle" font-size="9" font-weight="700" fill="white">Continuous Monitoring</text>
  <text x="525" y="215" text-anchor="middle" font-size="7" fill="rgba(255,255,255,0.7)">Periodic re-screening all customers</text>
  <!-- Loop arrow -->
  <path d="M425,204 Q405,204 405,170 Q405,144 425,144" fill="none" stroke="#14B8A6" stroke-width="1.5" stroke-dasharray="4,3" marker-end="url(#arrTeal)"/>

  <!-- Arrow: clear -> enter pipeline -->
  <line x1="812" y1="143" x2="812" y2="270" stroke="#10B981" stroke-width="1.5" stroke-dasharray="5,3" marker-end="url(#arrGreen)"/>
  <text x="822" y="258" font-size="7" fill="#10B981">Enter Pipeline</text>

  <!-- ==================== CBN BADGE (Top Right) ==================== -->
  <rect x="1065" y="85" width="310" height="175" rx="12" fill="#111827" stroke="#1E293B" stroke-width="1"/>
  <text x="1220" y="115" text-anchor="middle" font-size="14" font-weight="800" fill="#F59E0B">CBN COMPLIANT ~95%</text>
  <text x="1220" y="135" text-anchor="middle" font-size="9" fill="#94A3B8">Baseline Standards for Automated</text>
  <text x="1220" y="150" text-anchor="middle" font-size="9" fill="#94A3B8">AML Solutions (March 2026)</text>

  <text x="1100" y="175" font-size="8" fill="#64748B">Transaction Monitoring</text>
  <rect x="1230" y="167" width="80" height="12" rx="3" fill="#064E3B"/><rect x="1230" y="167" width="80" height="12" rx="3" fill="#10B981"/><text x="1270" y="176" text-anchor="middle" font-size="7" fill="white" font-weight="700">100%</text>

  <text x="1100" y="192" font-size="8" fill="#64748B">Sanctions / PEP</text>
  <rect x="1230" y="184" width="80" height="12" rx="3" fill="#064E3B"/><rect x="1230" y="184" width="80" height="12" rx="3" fill="#10B981"/><text x="1270" y="193" text-anchor="middle" font-size="7" fill="white" font-weight="700">100%</text>

  <text x="1100" y="209" font-size="8" fill="#64748B">Audit / Governance</text>
  <rect x="1230" y="201" width="80" height="12" rx="3" fill="#064E3B"/><rect x="1230" y="201" width="80" height="12" rx="3" fill="#10B981"/><text x="1270" y="210" text-anchor="middle" font-size="7" fill="white" font-weight="700">100%</text>

  <text x="1100" y="226" font-size="8" fill="#64748B">Customer KYC</text>
  <rect x="1230" y="218" width="80" height="12" rx="3" fill="#1E293B"/><rect x="1230" y="218" width="60" height="12" rx="3" fill="#F59E0B"/><text x="1260" y="227" text-anchor="middle" font-size="7" fill="white" font-weight="700">75%</text>

  <text x="1100" y="243" font-size="8" fill="#64748B">KYB (Business)</text>
  <rect x="1230" y="235" width="80" height="12" rx="3" fill="#1E293B"/><rect x="1230" y="235" width="40" height="12" rx="3" fill="#F97316"/><text x="1250" y="244" text-anchor="middle" font-size="7" fill="white" font-weight="700">50%</text>

  <!-- ==================== DATA SOURCES (Left Column) ==================== -->
  <rect x="25" y="280" width="180" height="540" rx="12" fill="#111827" stroke="#1E293B" stroke-width="1"/>
  <text x="115" y="305" text-anchor="middle" font-size="10" font-weight="700" fill="#94A3B8" letter-spacing="1.5">DATA SOURCES</text>

  <rect x="40" y="320" width="150" height="44" rx="8" fill="#1E293B" stroke="#334155" stroke-width="1"/>
  <text x="115" y="340" text-anchor="middle" font-size="9" font-weight="600" fill="#E2E8F0">Transaction Feeds</text>
  <text x="115" y="354" text-anchor="middle" font-size="7" fill="#64748B">Real-time ingestion</text>

  <rect x="40" y="374" width="150" height="44" rx="8" fill="#1E293B" stroke="#334155" stroke-width="1"/>
  <text x="115" y="394" text-anchor="middle" font-size="9" font-weight="600" fill="#E2E8F0">Customer Records</text>
  <text x="115" y="408" text-anchor="middle" font-size="7" fill="#64748B">KYC profiles, risk tiers</text>

  <rect x="40" y="428" width="150" height="44" rx="8" fill="#1E293B" stroke="#334155" stroke-width="1"/>
  <text x="115" y="448" text-anchor="middle" font-size="9" font-weight="600" fill="#E2E8F0">Core Banking</text>
  <text x="115" y="462" text-anchor="middle" font-size="7" fill="#64748B">Account status, dormancy</text>

  <rect x="40" y="482" width="150" height="44" rx="8" fill="#1E293B" stroke="#334155" stroke-width="1"/>
  <text x="115" y="502" text-anchor="middle" font-size="9" font-weight="600" fill="#E2E8F0">Watchlists</text>
  <text x="115" y="516" text-anchor="middle" font-size="7" fill="#14B8A6">OFAC, UN, PEP, Domestic</text>

  <rect x="40" y="536" width="150" height="44" rx="8" fill="#1E293B" stroke="#6366F1" stroke-width="1" stroke-dasharray="4,3"/>
  <text x="115" y="556" text-anchor="middle" font-size="9" font-weight="600" fill="#E2E8F0">YouVerify API</text>
  <text x="115" y="570" text-anchor="middle" font-size="7" fill="#6366F1">Layer 2 (when active)</text>

  <rect x="40" y="590" width="150" height="44" rx="8" fill="#1E293B" stroke="#334155" stroke-width="1"/>
  <text x="115" y="610" text-anchor="middle" font-size="9" font-weight="600" fill="#E2E8F0">BVN / NIN</text>
  <text x="115" y="624" text-anchor="middle" font-size="7" fill="#64748B">Identity databases</text>

  <rect x="40" y="644" width="150" height="44" rx="8" fill="#1E293B" stroke="#A855F7" stroke-width="1" stroke-dasharray="4,3" opacity="0.5"/>
  <text x="115" y="664" text-anchor="middle" font-size="9" font-weight="600" fill="#94A3B8">Biometrics</text>
  <text x="115" y="678" text-anchor="middle" font-size="7" fill="#A855F7">Layer 1 (future)</text>

  <!-- ==================== 7-AGENT PIPELINE (Center) ==================== -->
  <rect x="225" y="280" width="510" height="540" rx="12" fill="#111827" stroke="#1E293B" stroke-width="1"/>
  <text x="480" y="305" text-anchor="middle" font-size="10" font-weight="700" fill="#94A3B8" letter-spacing="1.5">7-AGENT PIPELINE</text>

  <!-- Agent 1 -->
  <rect x="248" y="320" width="240" height="56" rx="20" fill="url(#g1)" filter="url(#shadow)"/>
  <circle cx="274" cy="348" r="12" fill="rgba(255,255,255,0.2)"/>
  <text x="274" y="352" text-anchor="middle" font-size="10" fill="white" font-weight="800">1</text>
  <text x="298" y="342" font-size="10" font-weight="700" fill="white">Transaction Monitor</text>
  <text x="298" y="356" font-size="7" fill="rgba(255,255,255,0.8)">Thresholds, velocity, dormant accounts,</text>
  <text x="298" y="367" font-size="7" fill="rgba(255,255,255,0.7)">structuring, round-tripping, time anomaly</text>

  <!-- Agent 2 -->
  <rect x="248" y="386" width="240" height="56" rx="20" fill="url(#g2)" filter="url(#shadow)"/>
  <circle cx="274" cy="414" r="12" fill="rgba(255,255,255,0.2)"/>
  <text x="274" y="418" text-anchor="middle" font-size="10" fill="white" font-weight="800">2</text>
  <text x="298" y="408" font-size="10" font-weight="700" fill="white">KYC Verifier</text>
  <text x="298" y="422" font-size="7" fill="rgba(255,255,255,0.8)">BVN/NIN, risk tier, PEP status</text>
  <text x="298" y="433" font-size="7" fill="rgba(255,255,255,0.6)">YouVerify integration (Layer 2)</text>

  <!-- Agent 3 -->
  <rect x="248" y="452" width="240" height="56" rx="20" fill="url(#g3)" filter="url(#shadow)"/>
  <circle cx="274" cy="480" r="12" fill="rgba(255,255,255,0.2)"/>
  <text x="274" y="484" text-anchor="middle" font-size="10" fill="white" font-weight="800">3</text>
  <text x="298" y="474" font-size="10" font-weight="700" fill="white">Watchlist Screener</text>
  <text x="298" y="488" font-size="7" fill="rgba(255,255,255,0.8)">Sanctions, PEP, Adverse Media</text>
  <text x="298" y="499" font-size="7" fill="rgba(255,255,255,0.6)">Multi-list fuzzy matching</text>

  <!-- Agent 4 -->
  <rect x="248" y="518" width="240" height="56" rx="20" fill="url(#g4)" filter="url(#shadow)"/>
  <circle cx="274" cy="546" r="12" fill="rgba(255,255,255,0.2)"/>
  <text x="274" y="550" text-anchor="middle" font-size="10" fill="white" font-weight="800">4</text>
  <text x="298" y="540" font-size="10" font-weight="700" fill="white">Pattern Analyzer</text>
  <text x="298" y="554" font-size="7" fill="rgba(255,255,255,0.8)">LLM-powered anomaly detection,</text>
  <text x="298" y="565" font-size="7" fill="rgba(255,255,255,0.7)">typology matching, behavioral analysis</text>

  <!-- Agent 5 -->
  <rect x="248" y="584" width="240" height="56" rx="20" fill="url(#g5)" filter="url(#shadow)"/>
  <circle cx="274" cy="612" r="12" fill="rgba(255,255,255,0.2)"/>
  <text x="274" y="616" text-anchor="middle" font-size="10" fill="white" font-weight="800">5</text>
  <text x="298" y="606" font-size="10" font-weight="700" fill="white">SAR Generator</text>
  <text x="298" y="620" font-size="7" fill="rgba(255,255,255,0.8)">Draft STR/CTR, NFIU format,</text>
  <text x="298" y="631" font-size="7" fill="rgba(255,255,255,0.7)">evidence packaging, priority</text>

  <!-- Agent 6 -->
  <rect x="248" y="650" width="240" height="56" rx="20" fill="url(#g6)" filter="url(#shadow)"/>
  <circle cx="274" cy="678" r="12" fill="rgba(255,255,255,0.2)"/>
  <text x="274" y="682" text-anchor="middle" font-size="10" fill="white" font-weight="800">6</text>
  <text x="298" y="672" font-size="10" font-weight="700" fill="white">Case Manager</text>
  <text x="298" y="686" font-size="7" fill="rgba(255,255,255,0.8)">Routing, SLA tracking, escalation,</text>
  <text x="298" y="697" font-size="7" fill="rgba(255,255,255,0.7)">regulatory reporting</text>

  <!-- Pipeline flow arrows -->
  <line x1="368" y1="376" x2="368" y2="386" stroke="#475569" stroke-width="1.5" marker-end="url(#arr)"/>
  <line x1="368" y1="442" x2="368" y2="452" stroke="#475569" stroke-width="1.5" marker-end="url(#arr)"/>
  <line x1="368" y1="508" x2="368" y2="518" stroke="#475569" stroke-width="1.5" marker-end="url(#arr)"/>
  <line x1="368" y1="574" x2="368" y2="584" stroke="#475569" stroke-width="1.5" marker-end="url(#arr)"/>
  <line x1="368" y1="640" x2="368" y2="650" stroke="#475569" stroke-width="1.5" marker-end="url(#arr)"/>

  <!-- Data source arrows -->
  <line x1="190" y1="342" x2="248" y2="348" stroke="#475569" stroke-width="1.2"/>
  <line x1="190" y1="396" x2="248" y2="414" stroke="#475569" stroke-width="1.2"/>
  <line x1="190" y1="450" x2="248" y2="440" stroke="#475569" stroke-width="1"/>
  <line x1="190" y1="504" x2="248" y2="480" stroke="#14B8A6" stroke-width="1.2"/>
  <line x1="190" y1="558" x2="248" y2="414" stroke="#6366F1" stroke-width="1" stroke-dasharray="4,3"/>

  <!-- ==================== GOVERNANCE ENGINE (Center Right) ==================== -->
  <rect x="510" y="320" width="210" height="386" rx="10" fill="url(#gGov)" filter="url(#shadow)" opacity="0.95"/>
  <text x="615" y="345" text-anchor="middle" font-size="10" font-weight="800" fill="#F59E0B" letter-spacing="1.5">GOVERNANCE</text>
  <text x="615" y="360" text-anchor="middle" font-size="7" fill="#64748B">Inline at Every Stage</text>

  <!-- Controls -->
  <rect x="522" y="372" width="186" height="24" rx="5" fill="rgba(255,255,255,0.05)"/>
  <circle cx="536" cy="384" r="5" fill="#3B82F6"/><text x="550" y="388" font-size="8" fill="#CBD5E1">Confidence Gates</text>

  <rect x="522" y="400" width="186" height="24" rx="5" fill="rgba(255,255,255,0.05)"/>
  <circle cx="536" cy="412" r="5" fill="#10B981"/><text x="550" y="416" font-size="8" fill="#CBD5E1">Materiality Thresholds</text>

  <rect x="522" y="428" width="186" height="24" rx="5" fill="rgba(255,255,255,0.05)"/>
  <circle cx="536" cy="440" r="5" fill="#EF4444"/><text x="550" y="444" font-size="8" fill="#CBD5E1">Sanctions Auto-Block</text>

  <rect x="522" y="456" width="186" height="24" rx="5" fill="rgba(255,255,255,0.05)"/>
  <circle cx="536" cy="468" r="5" fill="#F59E0B"/><text x="550" y="472" font-size="8" fill="#CBD5E1">Human-in-the-Loop (SAR)</text>

  <rect x="522" y="484" width="186" height="24" rx="5" fill="rgba(255,255,255,0.08)"/>
  <circle cx="536" cy="496" r="5" fill="#F97316"/><text x="550" y="500" font-size="8" fill="#FCD34D" font-weight="600">Executive Escalation</text>

  <rect x="522" y="512" width="186" height="24" rx="5" fill="rgba(255,255,255,0.05)"/>
  <circle cx="536" cy="524" r="5" fill="#8B5CF6"/><text x="550" y="528" font-size="8" fill="#CBD5E1">Risk-Tiered Escalation</text>

  <rect x="522" y="540" width="186" height="24" rx="5" fill="rgba(255,255,255,0.05)"/>
  <circle cx="536" cy="552" r="5" fill="#EC4899"/><text x="550" y="556" font-size="8" fill="#CBD5E1">Segregation of Duties</text>

  <rect x="522" y="568" width="186" height="24" rx="5" fill="rgba(255,255,255,0.05)"/>
  <circle cx="536" cy="580" r="5" fill="#06B6D4"/><text x="550" y="584" font-size="8" fill="#CBD5E1">Immutable Audit Trail</text>

  <rect x="522" y="596" width="186" height="24" rx="5" fill="rgba(255,255,255,0.08)"/>
  <circle cx="536" cy="608" r="5" fill="#14B8A6"/><text x="550" y="612" font-size="8" fill="#5EEAD4" font-weight="600">Continuous Monitoring</text>

  <rect x="522" y="624" width="186" height="24" rx="5" fill="rgba(255,255,255,0.05)"/>
  <circle cx="536" cy="636" r="5" fill="#10B981"/><text x="550" y="640" font-size="8" fill="#CBD5E1">Annual Model Validation</text>

  <rect x="522" y="652" width="186" height="24" rx="5" fill="rgba(255,255,255,0.08)"/>
  <circle cx="536" cy="664" r="5" fill="#06B6D4"/><text x="550" y="668" font-size="8" fill="#22D3EE" font-weight="600">Onboarding Gate</text>

  <!-- Dashed lines agents to governance -->
  <line x1="488" y1="348" x2="510" y2="384" stroke="#334155" stroke-width="1" stroke-dasharray="3,3"/>
  <line x1="488" y1="414" x2="510" y2="412" stroke="#334155" stroke-width="1" stroke-dasharray="3,3"/>
  <line x1="488" y1="480" x2="510" y2="440" stroke="#334155" stroke-width="1" stroke-dasharray="3,3"/>
  <line x1="488" y1="546" x2="510" y2="496" stroke="#334155" stroke-width="1" stroke-dasharray="3,3"/>
  <line x1="488" y1="612" x2="510" y2="552" stroke="#334155" stroke-width="1" stroke-dasharray="3,3"/>
  <line x1="488" y1="678" x2="510" y2="608" stroke="#334155" stroke-width="1" stroke-dasharray="3,3"/>

  <!-- ==================== OUTPUTS (Right) ==================== -->
  <rect x="755" y="280" width="340" height="540" rx="12" fill="#111827" stroke="#1E293B" stroke-width="1"/>
  <text x="925" y="305" text-anchor="middle" font-size="10" font-weight="700" fill="#94A3B8" letter-spacing="1.5">OUTPUTS AND REPORTING</text>

  <rect x="773" y="320" width="155" height="50" rx="8" fill="#1E293B" stroke="#334155" stroke-width="1"/>
  <text x="850" y="340" text-anchor="middle" font-size="9" font-weight="600" fill="#E2E8F0">STR / CTR Reports</text>
  <text x="850" y="354" text-anchor="middle" font-size="7" fill="#EF4444">NFIU Filing (24hr SLA)</text>
  <text x="850" y="365" text-anchor="middle" font-size="6" fill="#64748B">Human Approved</text>

  <rect x="773" y="380" width="155" height="50" rx="8" fill="#1E293B" stroke="#334155" stroke-width="1"/>
  <text x="850" y="400" text-anchor="middle" font-size="9" font-weight="600" fill="#E2E8F0">Case Management</text>
  <text x="850" y="414" text-anchor="middle" font-size="7" fill="#8B5CF6">Investigation Tracking</text>
  <text x="850" y="425" text-anchor="middle" font-size="6" fill="#64748B">SLA Monitored</text>

  <rect x="773" y="440" width="155" height="50" rx="8" fill="#1E293B" stroke="#334155" stroke-width="1"/>
  <text x="850" y="460" text-anchor="middle" font-size="9" font-weight="600" fill="#E2E8F0">Compliance Dashboard</text>
  <text x="850" y="474" text-anchor="middle" font-size="7" fill="#10B981">Real-time KPIs</text>

  <rect x="773" y="500" width="155" height="50" rx="8" fill="#1E293B" stroke="#334155" stroke-width="1"/>
  <text x="850" y="520" text-anchor="middle" font-size="9" font-weight="600" fill="#E2E8F0">Audit Trail</text>
  <text x="850" y="534" text-anchor="middle" font-size="7" fill="#F59E0B">CBN Examination Ready</text>

  <rect x="773" y="560" width="155" height="50" rx="8" fill="#1E293B" stroke="#334155" stroke-width="1"/>
  <text x="850" y="580" text-anchor="middle" font-size="9" font-weight="600" fill="#E2E8F0">Model Validation</text>
  <text x="850" y="594" text-anchor="middle" font-size="7" fill="#3B82F6">Accuracy, Drift, Bias, Fairness</text>

  <rect x="773" y="620" width="155" height="50" rx="8" fill="#1E293B" stroke="#F97316" stroke-width="1.5"/>
  <text x="850" y="640" text-anchor="middle" font-size="9" font-weight="600" fill="#F97316">Escalation Queue</text>
  <text x="850" y="654" text-anchor="middle" font-size="7" fill="#FDBA74">C-Suite / MLRO Approvals</text>
  <text x="850" y="665" text-anchor="middle" font-size="6" fill="#64748B">SLA Tracked</text>

  <rect x="773" y="680" width="155" height="50" rx="8" fill="#1E293B" stroke="#14B8A6" stroke-width="1.5"/>
  <text x="850" y="700" text-anchor="middle" font-size="9" font-weight="600" fill="#14B8A6">Monitoring Reports</text>
  <text x="850" y="714" text-anchor="middle" font-size="7" fill="#5EEAD4">Re-screening, Delta Detection</text>

  <!-- Regulatory bodies -->
  <rect x="950" y="320" width="130" height="50" rx="8" fill="#1E293B" stroke="#EF4444" stroke-width="1"/>
  <text x="1015" y="341" text-anchor="middle" font-size="11" font-weight="800" fill="#EF4444">NFIU</text>
  <text x="1015" y="356" text-anchor="middle" font-size="7" fill="#FCA5A5">STR/CTR Filing</text>

  <rect x="950" y="380" width="130" height="50" rx="8" fill="#1E293B" stroke="#F59E0B" stroke-width="1"/>
  <text x="1015" y="401" text-anchor="middle" font-size="11" font-weight="800" fill="#F59E0B">CBN</text>
  <text x="1015" y="416" text-anchor="middle" font-size="7" fill="#FDE68A">Examination / Audit</text>

  <rect x="950" y="440" width="130" height="50" rx="8" fill="#1E293B" stroke="#3B82F6" stroke-width="1"/>
  <text x="1015" y="461" text-anchor="middle" font-size="11" font-weight="800" fill="#3B82F6">FATF</text>
  <text x="1015" y="476" text-anchor="middle" font-size="7" fill="#93C5FD">International Standards</text>

  <!-- Governance to outputs connectors -->
  <line x1="720" y1="384" x2="773" y2="345" stroke="#475569" stroke-width="1.2"/>
  <line x1="720" y1="440" x2="773" y2="405" stroke="#475569" stroke-width="1.2"/>
  <line x1="720" y1="580" x2="773" y2="525" stroke="#475569" stroke-width="1.2"/>
  <line x1="720" y1="496" x2="773" y2="645" stroke="#F97316" stroke-width="1.2"/>
  <line x1="720" y1="608" x2="773" y2="705" stroke="#14B8A6" stroke-width="1.2"/>

  <!-- Output to regulators -->
  <line x1="928" y1="345" x2="950" y2="345" stroke="#EF4444" stroke-width="1.5"/>
  <line x1="928" y1="525" x2="950" y2="405" stroke="#F59E0B" stroke-width="1.2"/>

  <!-- ==================== TECH STACK BAR (Bottom) ==================== -->
  <rect x="25" y="840" width="540" height="65" rx="10" fill="#111827" stroke="#1E293B" stroke-width="1"/>
  <text x="45" y="862" font-size="9" font-weight="700" fill="#94A3B8" letter-spacing="1">TECH STACK</text>
  <text x="45" y="880" font-size="8" fill="#64748B">Python 3.12  |  FastAPI  |  LangChain  |  SQLite / PostgreSQL  |  Docker  |  GitHub Actions</text>
  <text x="45" y="895" font-size="8" fill="#64748B">OpenAI GPT-4o  |  Next.js 16  |  TypeScript  |  Tailwind CSS  |  Recharts  |  Lucide</text>

  <!-- Stats bar -->
  <rect x="585" y="840" width="230" height="65" rx="10" fill="#111827" stroke="#1E293B" stroke-width="1"/>
  <text x="700" y="862" text-anchor="middle" font-size="9" font-weight="700" fill="#94A3B8" letter-spacing="1">PROJECT STATS</text>
  <text x="700" y="880" text-anchor="middle" font-size="8" fill="#64748B">9,178 lines backend  |  52 API endpoints</text>
  <text x="700" y="895" text-anchor="middle" font-size="8" fill="#64748B">174 tests passing  |  7 agents  |  11 governance gates</text>

  <!-- VeriStack -->
  <rect x="835" y="840" width="260" height="65" rx="10" fill="#111827" stroke="#1E293B" stroke-width="1"/>
  <text x="965" y="865" text-anchor="middle" font-size="16" font-weight="800" fill="#F8FAFC" letter-spacing="0.5">VeriStack</text>
  <text x="965" y="885" text-anchor="middle" font-size="9" fill="#64748B">Innovate Boldly, Scale Securely.</text>
  <text x="965" y="900" text-anchor="middle" font-size="8" fill="#475569">veristack.ca</text>

  <!-- BSL Badge -->
  <rect x="1115" y="840" width="260" height="65" rx="10" fill="#111827" stroke="#1E293B" stroke-width="1"/>
  <text x="1245" y="862" text-anchor="middle" font-size="9" font-weight="700" fill="#94A3B8" letter-spacing="1">LICENSE</text>
  <text x="1245" y="880" text-anchor="middle" font-size="8" fill="#64748B">Business Source License 1.1</text>
  <text x="1245" y="895" text-anchor="middle" font-size="8" fill="#64748B">Apache 2.0 from April 2030</text>

</svg>
